<svg width="43" height="25" viewBox="0 0 43 25" fill="none" xmlns="http://www.w3.org/2000/svg">
<path d="M35.7638 10.3483C35.6113 10.3483 35.4691 10.365 35.3145 10.3692C35.1043 6.51275 31.9593 3.45155 28.0969 3.45155C26.7367 3.45155 25.4651 3.84179 24.3728 4.50333C22.6271 1.79466 19.6079 0 16.1743 0C10.7664 0 6.38254 4.43864 6.38254 9.91462C6.38254 10.5031 6.44025 11.0791 6.54123 11.6404C2.92219 11.6717 0 14.6475 0 18.3182C0 21.9346 2.83793 24.8731 6.38506 24.9896V25H35.3352V24.9791C35.4774 24.9896 35.6155 25 35.7618 25C39.76 25 43 21.7196 43 17.671C43.0021 13.6289 39.7621 10.3483 35.7638 10.3483Z" fill="#053759"/>
</svg>
